<?xml version="1.0" encoding="UTF-8"?><svg id="a" xmlns="http://www.w3.org/2000/svg" viewBox="0 0 159 60"><defs><style>.b{fill:#fcb813;}.c{fill:#ee0f4f;}</style></defs><path class="b" d="m125.27,43.01c.32.23.65.44.97.65.04.02.08.03.14.06v-.19c0-1.65,0-3.3,0-4.95,0-1.51,0-3.01,0-4.52,0-.08-.02-.2-.07-.23-.37-.27-.75-.52-1.15-.78-.01.05-.02.05-.02.06,0,3.23,0,6.45,0,9.68,0,.08.07.18.13.22Z"/><path class="b" d="m127.35,41.92c0,.09.02.23.08.27.36.26.74.51,1.14.77.01-.05.02-.06.02-.07,0-2.3,0-4.61,0-6.91,0-.07-.06-.16-.12-.21-.31-.22-.63-.43-.95-.64-.04-.03-.09-.05-.16-.09,0,.24,0,.44,0,.65,0,2.08,0,4.15,0,6.23Z"/><path class="b" d="m131.31,39c-.29-.31-.57-.61-.86-.92-.3.32-.57.62-.87.93.3.32.58.61.87.92.29-.31.57-.61.86-.92Z"/><path class="b" d="m30.59,33.83c-.05.04-.07.15-.07.23,0,1.51,0,3.01,0,4.52,0,1.65,0,3.3,0,4.95v.19c.06-.02.1-.04.14-.06.33-.22.65-.43.97-.65.07-.05.13-.15.13-.22,0-3.23,0-6.45,0-9.68,0,0,0-.01-.02-.06-.39.27-.78.51-1.15.78Z"/><path class="b" d="m29.54,35.05c-.07.04-.12.06-.16.09-.32.21-.64.42-.95.64-.06.04-.12.14-.12.21,0,2.3,0,4.61,0,6.91,0,.01,0,.03.02.07.39-.26.77-.51,1.14-.77.06-.05.08-.18.08-.27,0-2.08,0-4.15,0-6.23,0-.2,0-.41,0-.65Z"/><path class="b" d="m25.58,39c.29.31.57.61.86.92.29-.31.57-.6.87-.92-.29-.31-.57-.61-.87-.93-.29.31-.57.61-.86.92Z"/><path class="c" d="m65.21,49.37s-2.55,1.4-6.12-.64c0,0-2.68-1.28-2.04-3.83,0,0,4.84,2.42,8.79,0,0,0,2.55-2.29-.25-5.86,0,0-1.78-3.44-7.9-4.21,0,0-3.57-.38-2.8,3.57l1.66,1.4s.13-2.93,3.19-2.55c2.29.29,4.66,1.05,5.16,2.87.32,1.16-.4,2.35-1.54,2.71-1.65.53-4.63,1.2-7.82.53,0,0-.7,3.3,2.76,6.32,2.2,1.92,5.14,2.82,8.02,2.34,1.49-.25,2.9-.87,3.23-2.29v-4.85s-1.77,3.19-4.32,4.46Z"/><path class="c" d="m152.38,46.02c-.95-1.24-2.23-1.95-3.64-2.46-3.38-1.24-6.85-1.33-10.34-.64-3.34.67-6.45,1.99-9.44,3.57-3.02,1.59-5.98,3.3-9.01,4.88-3.16,1.65-6.41,3.08-9.96,3.68-4.54.77-8.74.12-12.61-1.89-2.78-1.94-5.5-3.97-7.92-6.37-1.37-1.36-2.42-2.91-2.66-4.87-.21-1.74.59-3.06,1.95-4.04,1.29-.94,2.71-1.1,4.25-.61-1.04,2.36-.46,3.6,2.15,4.75.16-.34.32-.68.49-1.02.93-1.73,2.26-3.07,4.17-3.58.89-.24,2.12-.28,2.83.18.4.26.23,1.72.01,2.57-.22.87-.69,1.72-1.23,2.44-1.47,1.96-3.41,3.16-5.94,3.25.56,1.79,2.33,2.97,4.03,2.73,2.8-.39,5.54-2.96,6.31-5.9.47-1.77.14-3.35-1.01-4.76-1.31-1.62-2.91-2.84-4.94-3.5v-2.05h-3.19c.03.54.1.98.04,1.41-.04.33-.2.75-.44.92-.77.55-1.61,1.01-2.46,1.52-.29-.2-.59-.45-.93-.61-1.04-.48-2.05-1.11-3.15-1.34-4.01-.82-6.98,2.57-5.7,6.45.78,2.36,2.33,4.23,4.03,5.97,2.57,2.64,5.4,4.95,8.35,7.09,1.48,1.33,3.03,2.4,4.65,3.22.85.43,1.72.79,2.61,1.08,3.08,1,6.39,1.16,9.93.49,3.49-.67,6.71-2.09,9.83-3.74,3.02-1.6,5.97-3.33,9-4.9,3.9-2.02,7.96-3.65,12.43-3.85,2.67-.11,5.28.15,7.74,1.3.5.23.99.5,1.49.76-.53-.77-1.18-1.42-1.73-2.14Z"/><path class="c" d="m54.3,42.98l-.66-.06s-2.11,3.85-6.86,3.46c-1.26-.1-2.45-.74-3.11-1.82-.59-.98-.95-2.45-.24-4.56.16-.47.39-.9.68-1.29.23.29,2.1,2.49,5.29,3.53,0,0,2.81.84,4.23.23v-5.01s-2.27,4.27-8.63,1.52l-.87-.29c.35-.47.79-.87,1.3-1.16.79-.45,1.91-.88,3.46-1l4.65-.15-2.74-3.01h-4.09c-1.34,0-2.67.26-3.88.84-1.34.65-2.75,1.74-3.02,3.54,0,0-.53,3.28,1.28,5.82,0,0,4.65,6.1,11.68,4.66,0,0,.83,1.59,1.22,2.19.04.08.08.14.13.18.02.03.04.05.05.05.14.09.3.17.49.22.02.01.03.02.03.02h0c1.34.39,3.64-.08,3.64-.08-5.5-1.98-4.03-7.82-4.03-7.82Z"/><path class="b" d="m110.09,10.93v-2.03s-1.53-1.18-1.54-1.2c-.03,0-1.56-1.2-1.56-1.2l-1.96.53.65,4.43,4.41-.53Z"/><path class="c" d="m107.46,32.38c-.18.63-.2,1.27-.2,1.92,0,4.79-.01,9.58,0,14.36,0,.19.11.44.25.56.66.57,1.34,1.11,2.02,1.65.08.06.18.09.31.15v-.67c0-4.57-.02-9.13,0-13.7,0-.58.07-1.16.19-1.73.25-1.19.84-2.07,1.83-2.55h11.22c0-1.55-3.28-2.81-5.07-2.81h-4.45c.33-.17.65-.37.95-.59,2.11-1.63,3.62-3.58,3.89-6.34.18-1.89-.46-3.57-1.56-5.08-1.39-1.91-3.3-3.12-5.48-3.93-1.96-.74-3.99-1.22-6.1-1.32-.09,0-.23-.09-.26-.17-.72-1.88-2.14-2.99-3.99-3.56-1.12-.34-2.27-.64-3.42-.8-1.75-.24-3.13.5-4.12,1.95-1.04,1.51-1.24,3.23-1.16,4.99.11,2.43.76,4.73,1.92,6.88.24.45.5.88.78,1.31.28.42.57.83.88,1.23.31.4.63.78.97,1.15.34.37.69.72,1.06,1.06.37.34.76.66,1.16.97.04.03.08.06.11.09,1.32.92,2.78,1.45,4,1.45,0-.02-.1-.08-.12-.1-.43-.3-.85-.61-1.26-.94-.36-.3-.72-.6-1.06-.92-.34-.31-.66-.64-.97-.98-.31-.34-.6-.68-.88-1.04-.28-.36-.54-.72-.79-1.1-.25-.38-.48-.77-.69-1.16-.22-.4-.42-.81-.6-1.22-.18-.42-.35-.85-.5-1.29-.15-.44-.29-.89-.4-1.35-.1-.41-.19-.81-.27-1.23-.32-1.73-.38-3.47.11-5.18.49-1.72,1.49-3.01,3.28-3.58.56-.18.96-.07,1.37.32,1,.97,1.6,2.14,1.82,3.51.07.44.08.85-.1,1.29-.28.64.04,1.23.69,1.45.84.28,1.68.53,2.66.6,0-.42.03-.81-.01-1.2-.04-.4.15-.65.44-.87.58-.45,1.26-.57,1.96-.62.9-.06,1.75.09,2.55.58,1.52.92,2.85,2.04,3.78,3.58,1.71,2.86,1.49,5.97-.62,8.67-1.64,2.09-3.8,3.26-6.46,3.49-.08.01-.16.02-.25.03h-26.57c-.55-3.09-1.48-6.08-2.82-8.95-2.26-4.84-5.11-9.26-8.91-12.94-3.29-3.19-7.18-5.2-11.58-6.13-4.34-.91-8.63-.73-12.83.88-3.93,1.5-6.96,4.2-9.46,7.64-2.29,3.18-4.17,6.63-6.12,10.03-1.57,2.74-3.16,5.47-5.14,7.93-2.11,2.62-4.54,4.83-7.64,6.07-3.25,1.29-6.55,1.63-9.83.2-.93-.4-1.77-1.01-2.56-1.47.01.03.06.11.12.19,1.37,1.87,2.98,3.46,4.99,4.59,2.99,1.67,6.05,1.51,9.16.38,3.2-1.16,5.7-3.35,7.87-5.99,2.2-2.67,3.87-5.73,5.6-8.72,1.91-3.28,3.69-6.64,6.02-9.63,2.2-2.82,4.65-5.4,7.88-6.84,8.33-3.71,16.09-3.07,23.29,2.99,3.89,3.27,6.23,7.39,7.9,12.28.84,2.46,1.69,4.98,2.05,7.52h-44.8v2.81h36.28c-.18.63-.2,1.27-.2,1.92,0,3.29,0,9.21,0,14.15,0,2.24,0,4.28,0,5.78,0,.19.11.44.25.56.66.57,1.34,1.11,2.02,1.65.08.06.18.09.31.15v-.67c0-4.57-.02-14.69,0-19.26,0-.58.07-1.16.19-1.73.25-1.19.84-2.07,1.83-2.55h4.31c-.18.63-.2,1.27-.2,1.92,0,4.79-.01,15.14,0,19.93,0,.19.11.44.25.56.66.57,1.34,1.11,2.02,1.65.08.06.18.09.31.15v-.67c0-4.57-.02-14.69,0-19.26,0-.58.07-1.16.19-1.73.25-1.19.84-2.07,1.83-2.55h24.63Z"/></svg>